HIERARCHY
ROOT SimulationBone
{
	OFFSET 0.000000 0.000000 0.000000
	CHANNELS 6 Xposition Yposition Zposition Zrotation Yrotation Xrotation 
	JOINT Hips
	{
		OFFSET 0.000000 0.000000 0.000000
		CHANNELS 6 Xposition Yposition Zposition Zrotation Yrotation Xrotation 
		JOINT RightUpLeg
		{
			OFFSET 0.103457 1.857818 10.548502
			CHANNELS 3 Zrotation Yrotation Xrotation
			JOINT RightLeg
			{
				OFFSET 43.500000 -0.000011 -0.000004
				CHANNELS 3 Zrotation Yrotation Xrotation
				JOINT RightFoot
				{
					OFFSET 42.372192 -0.000004 -0.000008
					CHANNELS 3 Zrotation Yrotation Xrotation
					JOINT RightToe
					{
						OFFSET 17.300014 0.000006 0.000001
						CHANNELS 3 Zrotation Yrotation Xrotation
						End Site
						{
							OFFSET 0.000000 0.000000 0.000000
						}
					}
				}
			}
		}
		JOINT LeftUpLeg
		{
			OFFSET 0.103457 1.857817 -10.548505
			CHANNELS 3 Zrotation Yrotation Xrotation
			JOINT LeftLeg
			{
				OFFSET 43.500046 -0.000004 0.000011
				CHANNELS 3 Zrotation Yrotation Xrotation
				JOINT LeftFoot
				{
					OFFSET 42.372257 0.000000 0.000015
					CHANNELS 3 Zrotation Yrotation Xrotation
					JOINT LeftToe
					{
						OFFSET 17.300003 -0.000000 0.000002
						CHANNELS 3 Zrotation Yrotation Xrotation
						End Site
						{
							OFFSET 0.000000 0.000000 0.000000
						}
					}
				}
			}
		}
		JOINT Spine
		{
			OFFSET 6.901961 -2.603721 -0.000001
			CHANNELS 3 Zrotation Yrotation Xrotation
			JOINT Spine1
			{
				OFFSET 12.588108 0.000002 -0.000001
				CHANNELS 3 Zrotation Yrotation Xrotation
				JOINT Spine2
				{
					OFFSET 12.343199 -0.000020 0.000006
					CHANNELS 3 Zrotation Yrotation Xrotation
					JOINT Neck
					{
						OFFSET 25.832905 0.000017 0.000000
						CHANNELS 3 Zrotation Yrotation Xrotation
						JOINT Head
						{
							OFFSET 11.766604 -0.000006 0.000004
							CHANNELS 3 Zrotation Yrotation Xrotation
							End Site
							{
								OFFSET 0.000000 0.000000 0.000000
							}
						}
					}
					JOINT RightShoulder
					{
						OFFSET 19.745903 -1.480350 6.000100
						CHANNELS 3 Zrotation Yrotation Xrotation
						JOINT RightArm
						{
							OFFSET 11.284130 -0.000016 -0.000016
							CHANNELS 3 Zrotation Yrotation Xrotation
							JOINT RightForeArm
							{
								OFFSET 33.000046 0.000004 0.000031
								CHANNELS 3 Zrotation Yrotation Xrotation
								JOINT RightHand
								{
									OFFSET 25.199999 0.000027 0.000001
									CHANNELS 3 Zrotation Yrotation Xrotation
									End Site
									{
										OFFSET 0.000000 0.000000 0.000000
									}
								}
							}
						}
					}
					JOINT LeftShoulder
					{
						OFFSET 19.746094 -1.480375 -6.000080
						CHANNELS 3 Zrotation Yrotation Xrotation
						JOINT LeftArm
						{
							OFFSET 11.284131 -0.000016 -0.000017
							CHANNELS 3 Zrotation Yrotation Xrotation
							JOINT LeftForeArm
							{
								OFFSET 33.000095 0.000009 0.000020
								CHANNELS 3 Zrotation Yrotation Xrotation
								JOINT LeftHand
								{
									OFFSET 25.199789 0.000132 0.000423
									CHANNELS 3 Zrotation Yrotation Xrotation
									End Site
									{
										OFFSET 0.000000 0.000000 0.000000
									}
								}
							}
						}
					}
				}
			}
		}
	}
}
MOTION
Frames: 5
Frame Time: 0.033333
-114.061539 0.000000 395.864832 0.000000 -28.232371 0.000000 -0.038555 89.223534 0.760373 96.529169 -0.883620 173.381210 170.196416 -3.020004 167.321685 -31.332666 -4.526660 -10.116659 81.396696 6.745340 -1.693301 21.454558 0.003109 0.000017 164.027184 10.630599 -172.016784 -70.831234 0.206391 1.046965 68.184617 1.292099 5.670898 21.454560 -0.003089 0.000000 9.195691 -2.093984 -1.577565 8.442630 -4.067331 -3.305723 8.124248 -4.087356 -3.281094 16.624457 6.610971 14.403988 -12.050230 -22.097370 22.252172 -173.067021 -71.210856 -8.506981 -32.715004 42.222112 13.094497 -27.544859 -9.318232 0.843544 7.743737 2.465808 11.912350 -159.503509 77.019781 22.423193 10.709601 -71.096423 -46.408677 -32.478595 11.784329 -1.071727 12.515967 -2.112972 -46.207510 
-112.753864 0.000000 396.625119 0.000000 -28.402372 0.000000 -0.200904 89.267723 0.959332 96.382732 -0.536199 173.670577 170.832402 -3.596297 166.936367 -31.800241 -4.422763 -9.704025 82.254725 6.388651 -2.000502 21.454560 0.003109 0.000017 161.481696 11.089497 -171.282990 -70.076928 0.836165 1.563093 68.759193 1.149843 6.495335 21.454557 -0.003095 0.000001 9.227280 -2.142777 -1.670342 8.510861 -4.156944 -3.496014 8.192498 -4.178105 -3.470850 16.332946 6.521326 14.221301 -11.841102 -22.215907 22.059209 -175.428518 -71.219728 -6.075701 -33.824295 40.765202 20.128709 -24.126233 -8.497436 0.735258 10.339885 9.372548 22.632098 -160.678534 77.214804 21.221890 9.135143 -73.291884 -46.474431 -35.424807 12.841508 -1.204860 10.628784 -2.271458 -48.296944 
-111.545831 0.000000 397.438774 0.000000 -28.474975 0.000000 -0.355708 89.337677 1.098617 96.122809 -0.278755 173.845665 171.441109 -3.978502 166.784914 -31.917911 -4.257723 -9.478779 82.890991 6.139462 -2.420800 21.454558 0.003109 0.000017 159.463320 11.373598 -171.572918 -67.473390 1.639602 2.636798 69.431714 0.711081 7.701171 21.454553 -0.003095 0.000003 9.236060 -2.149948 -1.738792 8.531147 -4.165913 -3.633704 8.212820 -4.187901 -3.608488 15.935412 6.276645 14.190174 -11.700074 -22.260594 22.013491 -175.379232 -71.211327 -6.126286 -33.908208 41.123305 23.872986 -24.103768 -9.199905 0.780862 14.382020 14.811952 37.896133 -162.000298 77.543985 19.870111 7.236305 -74.672676 -46.095362 -37.854421 14.394222 -1.363712 9.054043 -2.130358 -55.613002 
-110.435484 0.000000 398.304283 0.000000 -28.439066 0.000000 -0.448241 89.497917 1.186555 95.850391 -0.008085 174.059660 172.264898 -4.249208 166.942896 -31.461815 -4.079096 -9.380272 83.230903 5.971146 -2.882065 21.454560 0.003108 0.000017 158.229351 11.339604 -172.511427 -62.687114 1.936667 4.341325 70.713392 -0.485692 8.152248 21.454550 -0.003101 0.000001 9.237732 -2.097481 -1.749538 8.532819 -4.060291 -3.651222 8.214544 -4.082387 -3.626640 15.581723 5.985138 14.142534 -11.544482 -22.244072 21.923615 -173.548727 -71.004065 -8.009593 -33.094886 42.409191 24.501200 -26.008365 -10.162704 0.872959 18.084987 16.011919 49.821620 -162.727399 77.741370 19.126811 5.142856 -74.667341 -44.960304 -38.930651 15.326828 -1.451440 8.890040 -1.788220 -64.746778 
-109.421100 0.000000 399.223468 0.000000 -28.294780 0.000000 -0.499325 89.753464 1.246671 95.590950 0.339765 174.409234 173.321200 -4.576906 167.375780 -30.453051 -3.995083 -9.302753 83.282088 5.832066 -3.285260 21.454562 0.003110 0.000017 158.127076 10.588894 -173.862971 -55.700363 1.175589 5.429962 71.441880 -1.331240 8.115289 21.454551 -0.003094 0.000000 9.241071 -1.987992 -1.674561 8.535779 -3.847120 -3.493053 8.217550 -3.868270 -3.469781 15.293970 5.906241 13.905592 -11.279158 -22.136013 21.589080 -171.583395 -70.626676 -10.032420 -31.690708 43.896113 23.517600 -27.916467 -10.613326 0.934454 17.764187 13.046031 52.181317 -162.693904 77.722874 19.161083 3.809198 -73.372747 -43.886868 -39.014857 15.134161 -1.441041 10.079618 -0.985782 -69.097144 
